<svg width="164" height="104" viewBox="0 0 164 104" fill="none" xmlns="http://www.w3.org/2000/svg">
<path fill-rule="evenodd" clip-rule="evenodd" d="M50.0537 20.3646C53.3774 8.6117 64.183 0 77 0C86.4074 0 92.5108 2.59058 96.1862 7.65917C97.9567 6.96954 99.8095 6.31729 101.728 5.71441C117.041 0.901629 130.731 1.05773 132.304 6.06306C133.45 9.7105 127.846 14.9265 118.795 19.3505L138 24L163.5 43L138 36L138.5 91.5L69.5 104L20 91.5V55.5L0 49.5L18.5 26.5L50.0537 20.3646ZM78 94L96.5 40.5L111.5 37.5L130 86L118.5 88L114 76.5L95 80L90.5 92.5L78 94ZM96.5 70L104.5 46.5L111.5 67.5L96.5 70Z" fill="#C0B4A3"/>
</svg>
