<svg width="18" height="18" viewBox="0 0 18 18" fill="none" xmlns="http://www.w3.org/2000/svg">
<path fill-rule="evenodd" clip-rule="evenodd" d="M0.25 3.5C0.25 1.70507 1.70508 0.25 3.5 0.25H5.08824C6.88316 0.25 8.33824 1.70508 8.33824 3.5V5.08824C8.33824 6.88316 6.88316 8.33824 5.08823 8.33824H3.5C1.70507 8.33824 0.25 6.88316 0.25 5.08823V3.5ZM3.5 1.75C2.5335 1.75 1.75 2.5335 1.75 3.5V5.08823C1.75 6.05473 2.5335 6.83824 3.5 6.83824H5.08823C6.05473 6.83824 6.83824 6.05474 6.83824 5.08824V3.5C6.83824 2.5335 6.05474 1.75 5.08824 1.75H3.5Z" fill="#C0B4A3"/>
<path fill-rule="evenodd" clip-rule="evenodd" d="M0.25 12.9117C0.25 11.1168 1.70508 9.66174 3.5 9.66174H5.08824C6.88316 9.66174 8.33824 11.1168 8.33824 12.9117V14.5C8.33824 16.2949 6.88316 17.75 5.08823 17.75H3.5C1.70507 17.75 0.25 16.2949 0.25 14.5V12.9117ZM3.5 11.1617C2.5335 11.1617 1.75 11.9452 1.75 12.9117V14.5C1.75 15.4665 2.5335 16.25 3.5 16.25H5.08823C6.05473 16.25 6.83824 15.4665 6.83824 14.5V12.9117C6.83824 11.9452 6.05474 11.1617 5.08824 11.1617H3.5Z" fill="#C0B4A3"/>
<path fill-rule="evenodd" clip-rule="evenodd" d="M12.9121 1.75C11.9456 1.75 11.1621 2.5335 11.1621 3.5V5.08823C11.1621 6.05473 11.9456 6.83824 12.9121 6.83824H14.5003C15.4668 6.83824 16.2503 6.05473 16.2503 5.08824V4.29412C16.2503 3.8799 16.5861 3.54412 17.0003 3.54412C17.4146 3.54412 17.7503 3.8799 17.7503 4.29412V5.08824C17.7503 6.88316 16.2953 8.33824 14.5003 8.33824H12.9121C11.1172 8.33824 9.66211 6.88316 9.66211 5.08823V3.5C9.66211 1.70507 11.1172 0.25 12.9121 0.25H13.7062C14.1204 0.25 14.4562 0.585786 14.4562 1C14.4562 1.41421 14.1204 1.75 13.7062 1.75H12.9121Z" fill="#C0B4A3"/>
<path fill-rule="evenodd" clip-rule="evenodd" d="M9.66211 12.9117C9.66211 11.1168 11.1172 9.66174 12.9121 9.66174H14.5003C16.2953 9.66174 17.7503 11.1168 17.7503 12.9117V14.5C17.7503 16.2949 16.2953 17.75 14.5003 17.75H12.9121C11.1172 17.75 9.66211 16.2949 9.66211 14.5V12.9117ZM12.9121 11.1617C11.9456 11.1617 11.1621 11.9452 11.1621 12.9117V14.5C11.1621 15.4665 11.9456 16.25 12.9121 16.25H14.5003C15.4668 16.25 16.2503 15.4665 16.2503 14.5V12.9117C16.2503 11.9452 15.4668 11.1617 14.5003 11.1617H12.9121Z" fill="#C0B4A3"/>
</svg>
