<svg width="16" height="16" viewBox="0 0 16 16" fill="none" xmlns="http://www.w3.org/2000/svg">
<path d="M1.98047 15V1H8.26047C9.8738 1 11.1138 1.32667 11.9805 1.98C12.8471 2.62 13.2805 3.5 13.2805 4.62C13.2805 5.38 13.1071 6.02 12.7605 6.54C12.4271 7.06 11.9738 7.46 11.4005 7.74C10.8271 8.02 10.2071 8.16 9.54047 8.16L9.90047 7.56C10.7005 7.56 11.4071 7.7 12.0205 7.98C12.6338 8.26 13.1205 8.67333 13.4805 9.22C13.8405 9.75333 14.0205 10.42 14.0205 11.22C14.0205 12.42 13.5671 13.3533 12.6605 14.02C11.7671 14.6733 10.4338 15 8.66047 15H1.98047ZM3.98047 13.38H8.58047C9.68714 13.38 10.5338 13.1933 11.1205 12.82C11.7071 12.4467 12.0005 11.86 12.0005 11.06C12.0005 10.2467 11.7071 9.65333 11.1205 9.28C10.5338 8.90667 9.68714 8.72 8.58047 8.72H3.80047V7.1H8.08047C9.0938 7.1 9.88047 6.91333 10.4405 6.54C11.0005 6.16667 11.2805 5.60667 11.2805 4.86C11.2805 4.11333 11.0005 3.55333 10.4405 3.18C9.88047 2.80667 9.0938 2.62 8.08047 2.62H3.98047V13.38Z" fill="#C0B4A3"/>
</svg>
