<svg width="16" height="16" viewBox="0 0 16 16" fill="none" xmlns="http://www.w3.org/2000/svg">
<path fill-rule="evenodd" clip-rule="evenodd" d="M9.40282 1.48376C8.53072 0.993787 7.46919 0.993786 6.5971 1.48376L2.10473 4.00771C1.77898 4.19072 1.77898 4.66591 2.10473 4.84892L6.59709 7.37287C7.46919 7.86284 8.53072 7.86284 9.40281 7.37288L13.8952 4.84892C14.2209 4.66591 14.2209 4.19072 13.8952 4.00771L12.7721 3.37672C12.5034 3.22573 12.4079 2.88548 12.5589 2.61673C12.7099 2.34799 13.0501 2.25253 13.3189 2.40352L14.442 3.03451C15.527 3.64415 15.527 5.21249 14.442 5.82212L9.94959 8.34608C8.73794 9.02682 7.26197 9.02682 6.05032 8.34607L1.55795 5.82212C0.472867 5.21249 0.472873 3.64414 1.55796 3.03451L6.05032 0.510556C7.26197 -0.170186 8.73794 -0.170185 9.94959 0.510557L11.0727 1.14155C11.3414 1.29253 11.4369 1.63279 11.2859 1.90153C11.1349 2.17027 10.7947 2.26573 10.5259 2.11475L9.40282 1.48376ZM2.31794 6.92805C2.46893 7.19679 2.37347 7.53705 2.10473 7.68804C1.77898 7.87105 1.77898 8.34624 2.10473 8.52925L6.59709 11.0532C7.46919 11.5432 8.53072 11.5432 9.40281 11.0532L13.8952 8.52925C14.2209 8.34624 14.2209 7.87105 13.8952 7.68804C13.6264 7.53705 13.531 7.19679 13.682 6.92805C13.833 6.65931 14.1732 6.56385 14.442 6.71484C15.527 7.32447 15.527 8.89282 14.442 9.50245L9.94959 12.0264C8.73794 12.7071 7.26197 12.7071 6.05032 12.0264L1.55795 9.50245C0.472867 8.89281 0.472872 7.32447 1.55795 6.71484C1.8267 6.56385 2.16695 6.65931 2.31794 6.92805ZM14.042 10.5381C14.2843 10.3475 14.6352 10.3894 14.8258 10.6316C15.395 11.3551 15.2561 12.5081 14.3522 13.0159L9.94959 15.4894C8.73794 16.1702 7.26197 16.1702 6.05032 15.4894L1.71191 13.052C0.781359 12.5292 0.664617 11.3294 1.28402 10.612C1.48546 10.3787 1.83791 10.3528 2.07123 10.5543C2.30455 10.7557 2.33038 11.1082 2.12893 11.3415C1.93721 11.5636 1.98743 11.9264 2.25868 12.0788L6.59709 14.5162C7.46919 15.0062 8.53072 15.0062 9.40281 14.5162L13.8055 12.0427C14.0691 11.8946 14.1252 11.5464 13.9485 11.3219C13.7579 11.0796 13.7998 10.7287 14.042 10.5381Z" fill="#C0B4A3"/>
</svg>
