<svg width="16" height="16" viewBox="0 0 16 16" fill="none" xmlns="http://www.w3.org/2000/svg">
<path d="M9.01957 15.16C7.93957 15.16 6.94624 14.9866 6.03957 14.64C5.1329 14.28 4.34624 13.78 3.67957 13.14C3.0129 12.4866 2.4929 11.7266 2.11957 10.86C1.74624 9.9933 1.55957 9.03997 1.55957 7.99997C1.55957 6.95997 1.74624 6.00663 2.11957 5.13997C2.4929 4.2733 3.0129 3.51997 3.67957 2.87997C4.35957 2.22663 5.1529 1.72663 6.05957 1.37996C6.96624 1.01997 7.96624 0.839966 9.05957 0.839966C10.1662 0.839966 11.1796 1.01997 12.0996 1.37996C13.0196 1.73996 13.7996 2.27996 14.4396 2.99997L13.1996 4.23996C12.6262 3.67996 11.9996 3.2733 11.3196 3.01997C10.6529 2.7533 9.92624 2.61997 9.13957 2.61997C8.33957 2.61997 7.5929 2.7533 6.89957 3.01997C6.21957 3.28663 5.62624 3.65996 5.11957 4.13997C4.62624 4.61997 4.23957 5.1933 3.95957 5.85997C3.6929 6.5133 3.55957 7.22663 3.55957 7.99997C3.55957 8.75997 3.6929 9.4733 3.95957 10.14C4.23957 10.7933 4.62624 11.3666 5.11957 11.86C5.62624 12.34 6.21957 12.7133 6.89957 12.98C7.57957 13.2466 8.31957 13.38 9.11957 13.38C9.86624 13.38 10.5796 13.2666 11.2596 13.04C11.9529 12.8 12.5929 12.4066 13.1796 11.86L14.3196 13.38C13.6262 13.9666 12.8129 14.4133 11.8796 14.72C10.9596 15.0133 10.0062 15.16 9.01957 15.16ZM12.3996 13.12V7.91997H14.3196V13.38L12.3996 13.12Z" fill="#C0B4A3"/>
</svg>
