<svg width="16" height="16" viewBox="0 0 16 16" fill="none" xmlns="http://www.w3.org/2000/svg">
<path d="M8.01957 15.16C6.9529 15.16 5.95957 14.98 5.03957 14.62C4.1329 14.26 3.34624 13.76 2.67957 13.12C2.0129 12.4666 1.4929 11.7066 1.11957 10.84C0.746237 9.9733 0.55957 9.02663 0.55957 7.99997C0.55957 6.9733 0.746237 6.02663 1.11957 5.15997C1.4929 4.2933 2.0129 3.53996 2.67957 2.89997C3.34624 2.24663 4.1329 1.73996 5.03957 1.37996C5.94624 1.01997 6.93957 0.839966 8.01957 0.839966C9.08624 0.839966 10.0662 1.01997 10.9596 1.37996C11.8662 1.72663 12.6529 2.22663 13.3196 2.87997C13.9996 3.51997 14.5196 4.2733 14.8796 5.13997C15.2529 6.00663 15.4396 6.95997 15.4396 7.99997C15.4396 9.03997 15.2529 9.9933 14.8796 10.86C14.5196 11.7266 13.9996 12.4866 13.3196 13.14C12.6529 13.78 11.8662 14.28 10.9596 14.64C10.0662 14.9866 9.08624 15.16 8.01957 15.16ZM8.01957 13.38C8.7929 13.38 9.50624 13.2466 10.1596 12.98C10.8262 12.7133 11.3996 12.34 11.8796 11.86C12.3729 11.3666 12.7529 10.7933 13.0196 10.14C13.2996 9.48663 13.4396 8.7733 13.4396 7.99997C13.4396 7.22663 13.2996 6.5133 13.0196 5.85997C12.7529 5.20663 12.3729 4.63996 11.8796 4.15996C11.3996 3.66663 10.8262 3.28663 10.1596 3.01997C9.50624 2.7533 8.7929 2.61997 8.01957 2.61997C7.2329 2.61997 6.50624 2.7533 5.83957 3.01997C5.18624 3.28663 4.6129 3.66663 4.11957 4.15996C3.62624 4.63996 3.23957 5.20663 2.95957 5.85997C2.6929 6.5133 2.55957 7.22663 2.55957 7.99997C2.55957 8.7733 2.6929 9.48663 2.95957 10.14C3.23957 10.7933 3.62624 11.3666 4.11957 11.86C4.6129 12.34 5.18624 12.7133 5.83957 12.98C6.50624 13.2466 7.2329 13.38 8.01957 13.38Z" fill="#C0B4A3"/>
</svg>
