<svg width="16" height="16" viewBox="0 0 16 16" fill="none" xmlns="http://www.w3.org/2000/svg">
<path d="M2.23047 15V1H7.69047C8.91714 1 9.9638 1.19333 10.8305 1.58C11.6971 1.96667 12.3638 2.52667 12.8305 3.26C13.2971 3.99333 13.5305 4.86667 13.5305 5.88C13.5305 6.89333 13.2971 7.76667 12.8305 8.5C12.3638 9.22 11.6971 9.77333 10.8305 10.16C9.9638 10.5467 8.91714 10.74 7.69047 10.74H3.33047L4.23047 9.82V15H2.23047ZM11.5905 15L8.03047 9.92H10.1705L13.7705 15H11.5905ZM4.23047 10.02L3.33047 9.04H7.63047C8.91047 9.04 9.87714 8.76667 10.5305 8.22C11.1971 7.66 11.5305 6.88 11.5305 5.88C11.5305 4.88 11.1971 4.10667 10.5305 3.56C9.87714 3.01333 8.91047 2.74 7.63047 2.74H3.33047L4.23047 1.74V10.02Z" fill="#C0B4A3"/>
</svg>
