<svg width="16" height="16" viewBox="0 0 16 16" fill="none" xmlns="http://www.w3.org/2000/svg">
<path d="M7.97035 15.16C6.90369 15.16 5.88369 15 4.91035 14.68C3.93702 14.3466 3.17035 13.92 2.61035 13.4L3.35035 11.84C3.88368 12.3066 4.56369 12.6933 5.39035 13C6.21702 13.3066 7.07702 13.46 7.97035 13.46C8.78368 13.46 9.44369 13.3666 9.95035 13.18C10.457 12.9933 10.8304 12.74 11.0704 12.42C11.3104 12.0866 11.4304 11.7133 11.4304 11.3C11.4304 10.82 11.2704 10.4333 10.9504 10.14C10.6437 9.84663 10.237 9.6133 9.73035 9.43997C9.23702 9.2533 8.69035 9.0933 8.09035 8.95997C7.49035 8.82663 6.88368 8.6733 6.27035 8.49997C5.67035 8.3133 5.11702 8.07996 4.61035 7.79996C4.11702 7.51997 3.71702 7.14663 3.41035 6.67997C3.10368 6.19997 2.95035 5.58663 2.95035 4.83997C2.95035 4.11997 3.13702 3.45996 3.51035 2.85996C3.89702 2.24663 4.48369 1.75996 5.27035 1.39997C6.07035 1.02663 7.08368 0.839966 8.31035 0.839966C9.12368 0.839966 9.93035 0.946632 10.7304 1.15997C11.5304 1.3733 12.2237 1.67996 12.8104 2.07997L12.1504 3.67997C11.5504 3.27997 10.917 2.9933 10.2504 2.81997C9.58368 2.6333 8.93702 2.53997 8.31035 2.53997C7.52368 2.53997 6.87702 2.63997 6.37035 2.83996C5.86369 3.03996 5.49035 3.30663 5.25035 3.63997C5.02368 3.9733 4.91035 4.34663 4.91035 4.75996C4.91035 5.2533 5.06369 5.64663 5.37035 5.93997C5.69035 6.2333 6.09702 6.46663 6.59035 6.63997C7.09702 6.8133 7.65035 6.9733 8.25035 7.11997C8.85035 7.2533 9.45035 7.40663 10.0504 7.57997C10.6637 7.7533 11.217 7.97997 11.7104 8.25997C12.217 8.53997 12.6237 8.9133 12.9304 9.37996C13.237 9.84663 13.3904 10.4466 13.3904 11.18C13.3904 11.8866 13.197 12.5466 12.8104 13.16C12.4237 13.76 11.8237 14.2466 11.0104 14.62C10.2104 14.98 9.19702 15.16 7.97035 15.16Z" fill="#C0B4A3"/>
</svg>
