<svg width="16" height="16" viewBox="0 0 16 16" fill="none" xmlns="http://www.w3.org/2000/svg">
<path fill-rule="evenodd" clip-rule="evenodd" d="M4.87833 11.7073C5.20162 11.7073 5.4637 11.9694 5.4637 12.2926C5.4637 12.7389 5.57843 13.1566 5.77955 13.5196C5.81128 13.5769 5.84517 13.6329 5.88113 13.6873C6.05917 13.9572 5.98474 14.3203 5.7149 14.4983C5.44505 14.6764 5.08196 14.6019 4.90393 14.3321C4.85141 14.2525 4.80186 14.1707 4.75546 14.0869C4.46061 13.5547 4.29297 12.9424 4.29297 12.2926C4.29297 11.9694 4.55505 11.7073 4.87833 11.7073ZM11.1222 11.7073C11.4455 11.7073 11.7076 11.9694 11.7076 12.2926C11.7076 14.3401 10.0478 16 8.00029 16C7.3528 16 6.74244 15.8335 6.21148 15.5405C6.12578 15.4932 6.04218 15.4427 5.96084 15.389C5.691 15.211 5.61657 14.8479 5.79461 14.578C5.97265 14.3082 6.33573 14.2338 6.60558 14.4118C6.66128 14.4485 6.71847 14.4831 6.77706 14.5155C7.13923 14.7153 7.55557 14.8292 8.00029 14.8292C9.4012 14.8292 10.5369 13.6936 10.5369 12.2926C10.5369 11.9694 10.7989 11.7073 11.1222 11.7073Z" fill="#C0B4A3"/>
<path fill-rule="evenodd" clip-rule="evenodd" d="M6.46633 0.61642C6.89118 0.157041 7.45881 0 7.99986 0C8.34118 0 8.65217 0.113707 8.91604 0.294464C9.18275 0.477169 9.25085 0.841492 9.06815 1.1082C8.88544 1.37491 8.52112 1.44301 8.25441 1.26031C8.15674 1.19341 8.07255 1.17073 7.99986 1.17073C7.6788 1.17073 7.46594 1.25983 7.32583 1.41132C7.17901 1.57007 7.02425 1.89192 7.02425 2.53659V8.78049C7.02425 8.7999 7.02439 8.81847 7.02466 8.83622C7.0705 8.81577 7.11964 8.79425 7.16815 8.77415C7.3776 8.68735 7.66831 8.58537 7.99986 8.58537C8.33141 8.58537 8.62211 8.68735 8.83157 8.77415C8.88007 8.79426 8.92922 8.81577 8.97505 8.83622C8.97532 8.81847 8.97547 8.7999 8.97547 8.78049V2.92683C8.97547 2.75986 8.96494 2.68952 8.95298 2.63504C8.94566 2.60167 8.93581 2.56565 8.9189 2.50738C8.91618 2.498 8.91329 2.48808 8.91024 2.47764C8.89522 2.42616 8.87648 2.36192 8.85626 2.28669C8.77238 1.97447 8.95748 1.65337 9.26969 1.56949C9.58191 1.4856 9.90301 1.6707 9.9869 1.98292C10.0017 2.03788 10.0164 2.08817 10.0307 2.1367C10.0934 2.35074 10.1462 2.53063 10.1462 2.92683V4.29268H11.1218C11.4451 4.29268 11.7072 4.55476 11.7072 4.87805C11.7072 5.20134 11.4451 5.46342 11.1218 5.46342H10.1462V6.2439H11.1218C11.4451 6.2439 11.7072 6.50598 11.7072 6.82927C11.7072 7.15256 11.4451 7.41464 11.1218 7.41464H10.1462V8.78049C10.1462 8.98231 10.1344 9.16489 10.1044 9.32448C10.0753 9.47862 10.0214 9.65542 9.9059 9.80892C9.77491 9.983 9.59086 10.0918 9.38312 10.1237C9.20212 10.1515 9.04086 10.115 8.93532 10.0834C8.82573 10.0505 8.71858 10.0041 8.63452 9.9667C8.60588 9.95394 8.57933 9.94197 8.55393 9.9305C8.49497 9.90389 8.44213 9.88005 8.38335 9.85569C8.2193 9.7877 8.09936 9.7561 7.99986 9.7561C7.90036 9.7561 7.78041 9.7877 7.61636 9.85569C7.55759 9.88005 7.50475 9.90389 7.44579 9.9305C7.42038 9.94197 7.39384 9.95394 7.36519 9.9667C7.28113 10.0041 7.17399 10.0505 7.0644 10.0834C6.95885 10.115 6.79759 10.1515 6.61659 10.1237C6.40885 10.0918 6.2248 9.983 6.09381 9.80892C5.97831 9.65542 5.92437 9.47862 5.89534 9.32448C5.86529 9.16489 5.85352 8.98231 5.85352 8.78049V2.53659C5.85352 1.72231 6.04819 1.06855 6.46633 0.61642ZM7.05587 9.14933C7.05587 9.14933 7.05605 9.14979 7.05587 9.14933V9.14933Z" fill="#C0B4A3"/>
<path d="M9.5614 12.2927C9.5614 13.1548 8.86253 13.8536 8.00043 13.8536C7.13833 13.8536 6.43945 13.1548 6.43945 12.2927C6.43945 11.4306 7.13833 10.7317 8.00043 10.7317C8.86253 10.7317 9.5614 11.4306 9.5614 12.2927Z" fill="#C0B4A3"/>
</svg>
