<svg width="16" height="16" viewBox="0 0 16 16" fill="none" xmlns="http://www.w3.org/2000/svg">
<path fill-rule="evenodd" clip-rule="evenodd" d="M8 1.37143C4.33914 1.37143 1.37143 4.33914 1.37143 8C1.37143 9.16467 1.67121 10.2573 2.19731 11.2069C2.28024 11.3567 2.36882 11.5028 2.46276 11.6452C2.67132 11.9613 2.58413 12.3867 2.26803 12.5952C1.95192 12.8038 1.52659 12.7166 1.31803 12.4005C1.20469 12.2287 1.09778 12.0523 0.997654 11.8715C0.361775 10.7237 0 9.40305 0 8C0 3.58172 3.58172 0 8 0C12.4183 0 16 3.58172 16 8C16 12.4183 12.4183 16 8 16C6.6018 16 5.28545 15.6407 4.14036 15.0089C3.95546 14.9069 3.77505 14.7978 3.59951 14.682C3.2834 14.4734 3.19622 14.0481 3.40478 13.732C3.61334 13.4159 4.03867 13.3287 4.35477 13.5372C4.50027 13.6332 4.64974 13.7236 4.80289 13.8081C5.75026 14.3308 6.83934 14.6286 8 14.6286C11.6609 14.6286 14.6286 11.6609 14.6286 8C14.6286 4.33914 11.6609 1.37143 8 1.37143ZM8 4.38857C8.37871 4.38857 8.68571 4.69558 8.68571 5.07429V7.63302L10.5747 8.89231C10.8898 9.10238 10.9749 9.52812 10.7648 9.84322C10.5548 10.1583 10.129 10.2435 9.81392 10.0334L7.78249 8.67912C7.48998 8.48411 7.31429 8.15582 7.31429 7.80428V5.07429C7.31429 4.69558 7.62129 4.38857 8 4.38857Z" fill="#FF4A4A"/>
</svg>
