<svg width="209" height="20" viewBox="0 0 209 20" fill="none" xmlns="http://www.w3.org/2000/svg">
<path d="M198.773 19.78C198.213 19.78 197.66 19.6933 197.113 19.52C196.567 19.3466 196.12 19.1066 195.773 18.8L196.913 16.58C197.153 16.7933 197.427 16.96 197.733 17.08C198.053 17.2 198.367 17.26 198.673 17.26C199.113 17.26 199.46 17.1533 199.713 16.94C199.98 16.74 200.22 16.4 200.433 15.92L200.993 14.6L201.233 14.26L205.093 4.97998H208.093L203.233 16.4C202.887 17.2666 202.487 17.9466 202.033 18.44C201.593 18.9333 201.1 19.28 200.553 19.48C200.02 19.68 199.427 19.78 198.773 19.78ZM200.613 16.16L195.813 4.97998H199.033L202.753 13.98L200.613 16.16Z" fill="#C0B4A3"/>
<path d="M189.708 15.74V4.97998H192.688V8.01998L192.268 7.13998C192.588 6.37998 193.101 5.80664 193.808 5.41998C194.514 5.01998 195.374 4.81998 196.388 4.81998V7.69998C196.254 7.68664 196.134 7.67998 196.028 7.67998C195.921 7.66664 195.808 7.65998 195.688 7.65998C194.834 7.65998 194.141 7.90664 193.608 8.39998C193.088 8.87998 192.828 9.63331 192.828 10.66V15.74H189.708Z" fill="#C0B4A3"/>
<path d="M182.922 15.9C181.775 15.9 180.755 15.66 179.862 15.18C178.982 14.7 178.282 14.0466 177.762 13.22C177.255 12.38 177.002 11.4266 177.002 10.36C177.002 9.27998 177.255 8.32664 177.762 7.49998C178.282 6.65998 178.982 6.00664 179.862 5.53998C180.755 5.05998 181.775 4.81998 182.922 4.81998C184.055 4.81998 185.069 5.05998 185.962 5.53998C186.855 6.00664 187.555 6.65331 188.062 7.47998C188.569 8.30664 188.822 9.26664 188.822 10.36C188.822 11.4266 188.569 12.38 188.062 13.22C187.555 14.0466 186.855 14.7 185.962 15.18C185.069 15.66 184.055 15.9 182.922 15.9ZM182.922 13.34C183.442 13.34 183.909 13.22 184.322 12.98C184.735 12.74 185.062 12.4 185.302 11.96C185.542 11.5066 185.662 10.9733 185.662 10.36C185.662 9.73331 185.542 9.19998 185.302 8.75998C185.062 8.31998 184.735 7.97998 184.322 7.73998C183.909 7.49998 183.442 7.37998 182.922 7.37998C182.402 7.37998 181.935 7.49998 181.522 7.73998C181.109 7.97998 180.775 8.31998 180.522 8.75998C180.282 9.19998 180.162 9.73331 180.162 10.36C180.162 10.9733 180.282 11.5066 180.522 11.96C180.775 12.4 181.109 12.74 181.522 12.98C181.935 13.22 182.402 13.34 182.922 13.34Z" fill="#C0B4A3"/>
<path d="M175.042 15.9C173.776 15.9 172.789 15.58 172.082 14.94C171.376 14.2866 171.022 13.32 171.022 12.04V2.59998H174.142V12C174.142 12.4533 174.262 12.8066 174.502 13.06C174.742 13.3 175.069 13.42 175.482 13.42C175.976 13.42 176.396 13.2866 176.742 13.02L177.582 15.22C177.262 15.4466 176.876 15.62 176.422 15.74C175.982 15.8466 175.522 15.9 175.042 15.9ZM169.362 7.61998V5.21998H176.822V7.61998H169.362Z" fill="#C0B4A3"/>
<path d="M166.099 15.74V13.64L165.899 13.18V9.41998C165.899 8.75331 165.692 8.23331 165.279 7.85998C164.879 7.48664 164.259 7.29998 163.419 7.29998C162.845 7.29998 162.279 7.39331 161.719 7.57998C161.172 7.75331 160.705 7.99331 160.319 8.29998L159.199 6.11998C159.785 5.70664 160.492 5.38664 161.319 5.15998C162.145 4.93331 162.985 4.81998 163.839 4.81998C165.479 4.81998 166.752 5.20664 167.659 5.97998C168.565 6.75331 169.019 7.95998 169.019 9.59998V15.74H166.099ZM162.819 15.9C161.979 15.9 161.259 15.76 160.659 15.48C160.059 15.1866 159.599 14.7933 159.279 14.3C158.959 13.8066 158.799 13.2533 158.799 12.64C158.799 12 158.952 11.44 159.259 10.96C159.579 10.48 160.079 10.1066 160.759 9.83998C161.439 9.55998 162.325 9.41998 163.419 9.41998H166.279V11.24H163.759C163.025 11.24 162.519 11.36 162.239 11.6C161.972 11.84 161.839 12.14 161.839 12.5C161.839 12.9 161.992 13.22 162.299 13.46C162.619 13.6866 163.052 13.8 163.599 13.8C164.119 13.8 164.585 13.68 164.999 13.44C165.412 13.1866 165.712 12.82 165.899 12.34L166.379 13.78C166.152 14.4733 165.739 15 165.139 15.36C164.539 15.72 163.765 15.9 162.819 15.9Z" fill="#C0B4A3"/>
<path d="M152.017 15.74L147.497 4.97998H150.717L154.477 14.24H152.877L156.777 4.97998H159.777L155.237 15.74H152.017Z" fill="#C0B4A3"/>
<path d="M141.391 15.74V4.97998H144.371V8.01998L143.951 7.13998C144.271 6.37998 144.784 5.80664 145.491 5.41998C146.198 5.01998 147.058 4.81998 148.071 4.81998V7.69998C147.938 7.68664 147.818 7.67998 147.711 7.67998C147.604 7.66664 147.491 7.65998 147.371 7.65998C146.518 7.65998 145.824 7.90664 145.291 8.39998C144.771 8.87998 144.511 9.63331 144.511 10.66V15.74H141.391Z" fill="#C0B4A3"/>
<path d="M135.314 15.9C134.087 15.9 133.007 15.66 132.074 15.18C131.154 14.7 130.44 14.0466 129.934 13.22C129.427 12.38 129.174 11.4266 129.174 10.36C129.174 9.27998 129.421 8.32664 129.914 7.49998C130.421 6.65998 131.107 6.00664 131.974 5.53998C132.84 5.05998 133.821 4.81998 134.914 4.81998C135.967 4.81998 136.914 5.04664 137.754 5.49998C138.607 5.93998 139.281 6.57998 139.774 7.41998C140.267 8.24664 140.514 9.23998 140.514 10.4C140.514 10.52 140.507 10.66 140.494 10.82C140.481 10.9666 140.467 11.1066 140.454 11.24H131.714V9.41998H138.814L137.614 9.95998C137.614 9.39998 137.501 8.91331 137.274 8.49998C137.047 8.08664 136.734 7.76664 136.334 7.53998C135.934 7.29998 135.467 7.17998 134.934 7.17998C134.4 7.17998 133.927 7.29998 133.514 7.53998C133.114 7.76664 132.8 8.09331 132.574 8.51998C132.347 8.93331 132.234 9.42664 132.234 9.99998V10.48C132.234 11.0666 132.36 11.5866 132.614 12.04C132.88 12.48 133.247 12.82 133.714 13.06C134.194 13.2866 134.754 13.4 135.394 13.4C135.967 13.4 136.467 13.3133 136.894 13.14C137.334 12.9666 137.734 12.7066 138.094 12.36L139.754 14.16C139.26 14.72 138.64 15.1533 137.894 15.46C137.147 15.7533 136.287 15.9 135.314 15.9Z" fill="#C0B4A3"/>
<path d="M124.169 15.9C123.249 15.9 122.362 15.7933 121.509 15.58C120.669 15.3533 120.002 15.0733 119.509 14.74L120.549 12.5C121.042 12.8066 121.622 13.06 122.289 13.26C122.969 13.4466 123.635 13.54 124.289 13.54C125.009 13.54 125.515 13.4533 125.809 13.28C126.115 13.1066 126.269 12.8666 126.269 12.56C126.269 12.3066 126.149 12.12 125.909 12C125.682 11.8666 125.375 11.7666 124.989 11.7C124.602 11.6333 124.175 11.5666 123.709 11.5C123.255 11.4333 122.795 11.3466 122.329 11.24C121.862 11.12 121.435 10.9466 121.049 10.72C120.662 10.4933 120.349 10.1866 120.109 9.79998C119.882 9.41331 119.769 8.91331 119.769 8.29998C119.769 7.61998 119.962 7.01998 120.349 6.49998C120.749 5.97998 121.322 5.57331 122.069 5.27998C122.815 4.97331 123.709 4.81998 124.749 4.81998C125.482 4.81998 126.229 4.89998 126.989 5.05998C127.749 5.21998 128.382 5.45331 128.889 5.75998L127.849 7.97998C127.329 7.67331 126.802 7.46664 126.269 7.35998C125.749 7.23998 125.242 7.17998 124.749 7.17998C124.055 7.17998 123.549 7.27331 123.229 7.45998C122.909 7.64664 122.749 7.88664 122.749 8.17998C122.749 8.44664 122.862 8.64664 123.089 8.77998C123.329 8.91331 123.642 9.01998 124.029 9.09998C124.415 9.17998 124.835 9.25331 125.289 9.31998C125.755 9.37331 126.222 9.45998 126.689 9.57998C127.155 9.69998 127.575 9.87331 127.949 10.1C128.335 10.3133 128.649 10.6133 128.889 11C129.129 11.3733 129.249 11.8666 129.249 12.48C129.249 13.1466 129.049 13.74 128.649 14.26C128.249 14.7666 127.669 15.1666 126.909 15.46C126.162 15.7533 125.249 15.9 124.169 15.9Z" fill="#C0B4A3"/>
<path d="M114.3 15.9C113.353 15.9 112.54 15.7 111.86 15.3C111.18 14.9 110.66 14.2933 110.3 13.48C109.94 12.6533 109.76 11.6133 109.76 10.36C109.76 9.09333 109.947 8.05333 110.32 7.24C110.707 6.42666 111.24 5.81999 111.92 5.41999C112.6 5.01999 113.393 4.81999 114.3 4.81999C115.313 4.81999 116.22 5.04666 117.02 5.49999C117.833 5.95333 118.473 6.59333 118.94 7.42C119.42 8.24666 119.66 9.22666 119.66 10.36C119.66 11.48 119.42 12.4533 118.94 13.28C118.473 14.1067 117.833 14.7533 117.02 15.22C116.22 15.6733 115.313 15.9 114.3 15.9ZM107.94 15.74V0.899994H111.06V7.16L110.86 10.34L110.92 13.54V15.74H107.94ZM113.76 13.34C114.28 13.34 114.74 13.22 115.14 12.98C115.553 12.74 115.88 12.4 116.12 11.96C116.373 11.5067 116.5 10.9733 116.5 10.36C116.5 9.73333 116.373 9.19999 116.12 8.75999C115.88 8.31999 115.553 7.97999 115.14 7.74C114.74 7.49999 114.28 7.37999 113.76 7.37999C113.24 7.37999 112.773 7.49999 112.36 7.74C111.947 7.97999 111.62 8.31999 111.38 8.75999C111.14 9.19999 111.02 9.73333 111.02 10.36C111.02 10.9733 111.14 11.5067 111.38 11.96C111.62 12.4 111.947 12.74 112.36 12.98C112.773 13.22 113.24 13.34 113.76 13.34Z" fill="#C0B4A3"/>
<path d="M101.155 15.9C100.008 15.9 98.9882 15.66 98.0949 15.18C97.2149 14.7 96.5149 14.0466 95.9949 13.22C95.4882 12.38 95.2349 11.4266 95.2349 10.36C95.2349 9.27998 95.4882 8.32664 95.9949 7.49998C96.5149 6.65998 97.2149 6.00664 98.0949 5.53998C98.9882 5.05998 100.008 4.81998 101.155 4.81998C102.288 4.81998 103.302 5.05998 104.195 5.53998C105.088 6.00664 105.788 6.65331 106.295 7.47998C106.802 8.30664 107.055 9.26664 107.055 10.36C107.055 11.4266 106.802 12.38 106.295 13.22C105.788 14.0466 105.088 14.7 104.195 15.18C103.302 15.66 102.288 15.9 101.155 15.9ZM101.155 13.34C101.675 13.34 102.142 13.22 102.555 12.98C102.968 12.74 103.295 12.4 103.535 11.96C103.775 11.5066 103.895 10.9733 103.895 10.36C103.895 9.73331 103.775 9.19998 103.535 8.75998C103.295 8.31998 102.968 7.97998 102.555 7.73998C102.142 7.49998 101.675 7.37998 101.155 7.37998C100.635 7.37998 100.168 7.49998 99.7549 7.73998C99.3415 7.97998 99.0082 8.31998 98.7549 8.75998C98.5149 9.19998 98.3949 9.73331 98.3949 10.36C98.3949 10.9733 98.5149 11.5066 98.7549 11.96C99.0082 12.4 99.3415 12.74 99.7549 12.98C100.168 13.22 100.635 13.34 101.155 13.34Z" fill="#C0B4A3"/>
<path d="M84.1572 15.74V4.97998H87.1372V8.01998L86.7172 7.13998C87.0372 6.37998 87.5506 5.80664 88.2572 5.41998C88.9639 5.01998 89.8239 4.81998 90.8372 4.81998V7.69998C90.7039 7.68664 90.5839 7.67998 90.4772 7.67998C90.3706 7.66664 90.2572 7.65998 90.1372 7.65998C89.2839 7.65998 88.5906 7.90664 88.0572 8.39998C87.5372 8.87998 87.2772 9.63331 87.2772 10.66V15.74H84.1572Z" fill="#C0B4A3"/>
<path d="M79.6135 15.74V13.64L79.4135 13.18V9.41998C79.4135 8.75331 79.2068 8.23331 78.7935 7.85998C78.3935 7.48664 77.7735 7.29998 76.9335 7.29998C76.3601 7.29998 75.7935 7.39331 75.2335 7.57998C74.6868 7.75331 74.2201 7.99331 73.8335 8.29998L72.7135 6.11998C73.3001 5.70664 74.0068 5.38664 74.8335 5.15998C75.6601 4.93331 76.5001 4.81998 77.3535 4.81998C78.9935 4.81998 80.2668 5.20664 81.1735 5.97998C82.0801 6.75331 82.5335 7.95998 82.5335 9.59998V15.74H79.6135ZM76.3335 15.9C75.4935 15.9 74.7735 15.76 74.1735 15.48C73.5735 15.1866 73.1135 14.7933 72.7935 14.3C72.4735 13.8066 72.3135 13.2533 72.3135 12.64C72.3135 12 72.4668 11.44 72.7735 10.96C73.0935 10.48 73.5935 10.1066 74.2735 9.83998C74.9535 9.55998 75.8401 9.41998 76.9335 9.41998H79.7935V11.24H77.2735C76.5401 11.24 76.0335 11.36 75.7535 11.6C75.4868 11.84 75.3535 12.14 75.3535 12.5C75.3535 12.9 75.5068 13.22 75.8135 13.46C76.1335 13.6866 76.5668 13.8 77.1135 13.8C77.6335 13.8 78.1001 13.68 78.5135 13.44C78.9268 13.1866 79.2268 12.82 79.4135 12.34L79.8935 13.78C79.6668 14.4733 79.2535 15 78.6535 15.36C78.0535 15.72 77.2801 15.9 76.3335 15.9Z" fill="#C0B4A3"/>
<path d="M69.9222 15.9C68.6555 15.9 67.6688 15.58 66.9622 14.94C66.2555 14.2866 65.9022 13.32 65.9022 12.04V2.59998H69.0222V12C69.0222 12.4533 69.1422 12.8066 69.3822 13.06C69.6222 13.3 69.9488 13.42 70.3622 13.42C70.8555 13.42 71.2755 13.2866 71.6222 13.02L72.4622 15.22C72.1422 15.4466 71.7555 15.62 71.3022 15.74C70.8622 15.8466 70.4022 15.9 69.9222 15.9ZM64.2422 7.61998V5.21998H71.7022V7.61998H64.2422Z" fill="#C0B4A3"/>
<path d="M59.7171 15.9C58.7971 15.9 57.9105 15.7933 57.0571 15.58C56.2171 15.3533 55.5505 15.0733 55.0571 14.74L56.0971 12.5C56.5905 12.8066 57.1705 13.06 57.8371 13.26C58.5171 13.4466 59.1838 13.54 59.8371 13.54C60.5571 13.54 61.0638 13.4533 61.3571 13.28C61.6638 13.1066 61.8171 12.8666 61.8171 12.56C61.8171 12.3066 61.6971 12.12 61.4571 12C61.2305 11.8666 60.9238 11.7666 60.5371 11.7C60.1505 11.6333 59.7238 11.5666 59.2571 11.5C58.8038 11.4333 58.3438 11.3466 57.8771 11.24C57.4105 11.12 56.9838 10.9466 56.5971 10.72C56.2105 10.4933 55.8971 10.1866 55.6571 9.79998C55.4305 9.41331 55.3171 8.91331 55.3171 8.29998C55.3171 7.61998 55.5105 7.01998 55.8971 6.49998C56.2971 5.97998 56.8705 5.57331 57.6171 5.27998C58.3638 4.97331 59.2571 4.81998 60.2971 4.81998C61.0305 4.81998 61.7771 4.89998 62.5371 5.05998C63.2971 5.21998 63.9305 5.45331 64.4371 5.75998L63.3971 7.97998C62.8771 7.67331 62.3505 7.46664 61.8171 7.35998C61.2971 7.23998 60.7905 7.17998 60.2971 7.17998C59.6038 7.17998 59.0971 7.27331 58.7771 7.45998C58.4571 7.64664 58.2971 7.88664 58.2971 8.17998C58.2971 8.44664 58.4105 8.64664 58.6371 8.77998C58.8771 8.91331 59.1905 9.01998 59.5771 9.09998C59.9638 9.17998 60.3838 9.25331 60.8371 9.31998C61.3038 9.37331 61.7705 9.45998 62.2371 9.57998C62.7038 9.69998 63.1238 9.87331 63.4971 10.1C63.8838 10.3133 64.1971 10.6133 64.4371 11C64.6771 11.3733 64.7971 11.8666 64.7971 12.48C64.7971 13.1466 64.5971 13.74 64.1971 14.26C63.7971 14.7666 63.2171 15.1666 62.4571 15.46C61.7105 15.7533 60.7971 15.9 59.7171 15.9Z" fill="#C0B4A3"/>
<path d="M48.5418 15.9C47.2751 15.9 46.2885 15.58 45.5818 14.94C44.8752 14.2866 44.5218 13.32 44.5218 12.04V2.59998H47.6418V12C47.6418 12.4533 47.7618 12.8066 48.0018 13.06C48.2418 13.3 48.5685 13.42 48.9818 13.42C49.4751 13.42 49.8952 13.2866 50.2418 13.02L51.0818 15.22C50.7618 15.4466 50.3752 15.62 49.9218 15.74C49.4818 15.8466 49.0218 15.9 48.5418 15.9ZM42.8618 7.61998V5.21998H50.3218V7.61998H42.8618Z" fill="#C0B4A3"/>
<path d="M38.0537 4.81998C38.907 4.81998 39.667 4.99331 40.3337 5.33998C41.0137 5.67331 41.547 6.19331 41.9337 6.89998C42.3203 7.59331 42.5137 8.48664 42.5137 9.57998V15.74H39.3937V10.06C39.3937 9.19331 39.2003 8.55331 38.8137 8.13998C38.4403 7.72664 37.907 7.51998 37.2137 7.51998C36.7203 7.51998 36.2737 7.62664 35.8737 7.83998C35.487 8.03998 35.1803 8.35331 34.9537 8.77998C34.7403 9.20664 34.6337 9.75331 34.6337 10.42V15.74H31.5137V4.97998H34.4937V7.95998L33.9337 7.05998C34.3203 6.33998 34.8737 5.78664 35.5937 5.39998C36.3137 5.01331 37.1337 4.81998 38.0537 4.81998Z" fill="#C0B4A3"/>
<path d="M25.4364 15.9C24.2097 15.9 23.1297 15.66 22.1964 15.18C21.2764 14.7 20.5631 14.0466 20.0564 13.22C19.5497 12.38 19.2964 11.4266 19.2964 10.36C19.2964 9.27998 19.5431 8.32664 20.0364 7.49998C20.5431 6.65998 21.2297 6.00664 22.0964 5.53998C22.9631 5.05998 23.9431 4.81998 25.0364 4.81998C26.0897 4.81998 27.0364 5.04664 27.8764 5.49998C28.7297 5.93998 29.4031 6.57998 29.8964 7.41998C30.3897 8.24664 30.6364 9.23998 30.6364 10.4C30.6364 10.52 30.6297 10.66 30.6164 10.82C30.6031 10.9666 30.5897 11.1066 30.5764 11.24H21.8364V9.41998H28.9364L27.7364 9.95998C27.7364 9.39998 27.6231 8.91331 27.3964 8.49998C27.1697 8.08664 26.8564 7.76664 26.4564 7.53998C26.0564 7.29998 25.5897 7.17998 25.0564 7.17998C24.5231 7.17998 24.0497 7.29998 23.6364 7.53998C23.2364 7.76664 22.9231 8.09331 22.6964 8.51998C22.4697 8.93331 22.3564 9.42664 22.3564 9.99998V10.48C22.3564 11.0666 22.4831 11.5866 22.7364 12.04C23.0031 12.48 23.3697 12.82 23.8364 13.06C24.3164 13.2866 24.8764 13.4 25.5164 13.4C26.0897 13.4 26.5897 13.3133 27.0164 13.14C27.4564 12.9666 27.8564 12.7066 28.2164 12.36L29.8764 14.16C29.3831 14.72 28.7631 15.1533 28.0164 15.46C27.2697 15.7533 26.4097 15.9 25.4364 15.9Z" fill="#C0B4A3"/>
<path d="M15.2808 15.74V0.899994H18.4008V15.74H15.2808Z" fill="#C0B4A3"/>
<path d="M10.465 15.74V4.98H13.585V15.74H10.465ZM12.025 3.48C11.4516 3.48 10.985 3.31333 10.625 2.98C10.265 2.64667 10.085 2.23333 10.085 1.74C10.085 1.24667 10.265 0.833334 10.625 0.500001C10.985 0.166667 11.4516 0 12.025 0C12.5983 0 13.065 0.16 13.425 0.480001C13.785 0.786668 13.965 1.18667 13.965 1.68C13.965 2.2 13.785 2.63333 13.425 2.98C13.0783 3.31333 12.6116 3.48 12.025 3.48Z" fill="#C0B4A3"/>
<path d="M4.66 15.9C3.74 15.9 2.85333 15.7933 2 15.58C1.16 15.3533 0.493333 15.0733 0 14.74L1.04 12.5C1.53333 12.8066 2.11333 13.06 2.78 13.26C3.46 13.4466 4.12667 13.54 4.78 13.54C5.5 13.54 6.00667 13.4533 6.3 13.28C6.60667 13.1066 6.76 12.8666 6.76 12.56C6.76 12.3066 6.64 12.12 6.4 12C6.17333 11.8666 5.86667 11.7666 5.48 11.7C5.09333 11.6333 4.66667 11.5666 4.2 11.5C3.74667 11.4333 3.28667 11.3466 2.82 11.24C2.35333 11.12 1.92667 10.9466 1.54 10.72C1.15333 10.4933 0.84 10.1866 0.6 9.79998C0.373333 9.41331 0.26 8.91331 0.26 8.29998C0.26 7.61998 0.453333 7.01998 0.84 6.49998C1.24 5.97998 1.81333 5.57331 2.56 5.27998C3.30667 4.97331 4.2 4.81998 5.24 4.81998C5.97333 4.81998 6.72 4.89998 7.48 5.05998C8.24 5.21998 8.87333 5.45331 9.38 5.75998L8.34 7.97998C7.82 7.67331 7.29333 7.46664 6.76 7.35998C6.24 7.23998 5.73333 7.17998 5.24 7.17998C4.54667 7.17998 4.04 7.27331 3.72 7.45998C3.4 7.64664 3.24 7.88664 3.24 8.17998C3.24 8.44664 3.35333 8.64664 3.58 8.77998C3.82 8.91331 4.13333 9.01998 4.52 9.09998C4.90667 9.17998 5.32667 9.25331 5.78 9.31998C6.24667 9.37331 6.71333 9.45998 7.18 9.57998C7.64667 9.69998 8.06667 9.87331 8.44 10.1C8.82667 10.3133 9.14 10.6133 9.38 11C9.62 11.3733 9.74 11.8666 9.74 12.48C9.74 13.1466 9.54 13.74 9.14 14.26C8.74 14.7666 8.16 15.1666 7.4 15.46C6.65333 15.7533 5.74 15.9 4.66 15.9Z" fill="#C0B4A3"/>
</svg>
