<svg width="94" height="20" viewBox="0 0 94 20" fill="none" xmlns="http://www.w3.org/2000/svg">
<path d="M86.8813 15.16C85.9879 15.16 85.1879 14.9867 84.4813 14.64C83.7879 14.2933 83.2479 13.7667 82.8613 13.06C82.4746 12.34 82.2812 11.4267 82.2812 10.32V4.23999H85.4013V9.85999C85.4013 10.7533 85.5879 11.4133 85.9613 11.84C86.3479 12.2533 86.8879 12.46 87.5813 12.46C88.0613 12.46 88.4879 12.36 88.8613 12.16C89.2346 11.9467 89.5279 11.6267 89.7413 11.2C89.9546 10.76 90.0613 10.2133 90.0613 9.55999V4.23999H93.1813V15H90.2213V12.04L90.7613 12.9C90.4013 13.6467 89.8679 14.2133 89.1613 14.6C88.4679 14.9733 87.7079 15.16 86.8813 15.16Z" fill="#C0B4A3"/>
<path d="M74.3136 15.16C73.3003 15.16 72.3869 14.9333 71.5736 14.48C70.7603 14.0133 70.1136 13.3667 69.6336 12.54C69.1669 11.7133 68.9336 10.74 68.9336 9.62C68.9336 8.48667 69.1669 7.50667 69.6336 6.68001C70.1136 5.85334 70.7603 5.21334 71.5736 4.76C72.3869 4.30667 73.3003 4.08 74.3136 4.08C75.2203 4.08 76.0136 4.28 76.6936 4.68C77.3736 5.08 77.9003 5.68667 78.2736 6.5C78.6469 7.31334 78.8336 8.35334 78.8336 9.62C78.8336 10.8733 78.6536 11.9133 78.2936 12.74C77.9336 13.5533 77.4136 14.16 76.7336 14.56C76.0669 14.96 75.2603 15.16 74.3136 15.16ZM74.8536 12.6C75.3603 12.6 75.8203 12.48 76.2336 12.24C76.6469 12 76.9736 11.66 77.2136 11.22C77.4669 10.7667 77.5936 10.2333 77.5936 9.62C77.5936 8.99334 77.4669 8.46 77.2136 8.02C76.9736 7.58 76.6469 7.24 76.2336 7C75.8203 6.76 75.3603 6.64 74.8536 6.64C74.3336 6.64 73.8669 6.76 73.4536 7C73.0403 7.24 72.7069 7.58 72.4536 8.02C72.2136 8.46 72.0936 8.99334 72.0936 9.62C72.0936 10.2333 72.2136 10.7667 72.4536 11.22C72.7069 11.66 73.0403 12 73.4536 12.24C73.8669 12.48 74.3336 12.6 74.8536 12.6ZM77.6736 15V12.8L77.7336 9.6L77.5336 6.42V0.160004H80.6536V15H77.6736Z" fill="#C0B4A3"/>
<path d="M65.0715 15V12.9L64.8715 12.44V8.67999C64.8715 8.01332 64.6648 7.49332 64.2515 7.11999C63.8515 6.74665 63.2315 6.55999 62.3915 6.55999C61.8181 6.55999 61.2515 6.65332 60.6915 6.83999C60.1448 7.01332 59.6781 7.25332 59.2915 7.55999L58.1715 5.37999C58.7581 4.96665 59.4648 4.64665 60.2915 4.41999C61.1181 4.19332 61.9581 4.07999 62.8115 4.07999C64.4515 4.07999 65.7248 4.46665 66.6315 5.23999C67.5381 6.01332 67.9915 7.21999 67.9915 8.85999V15H65.0715ZM61.7915 15.16C60.9515 15.16 60.2315 15.02 59.6315 14.74C59.0315 14.4467 58.5715 14.0533 58.2515 13.56C57.9315 13.0667 57.7715 12.5133 57.7715 11.9C57.7715 11.26 57.9248 10.7 58.2315 10.22C58.5515 9.73999 59.0515 9.36665 59.7315 9.09999C60.4115 8.81999 61.2981 8.67999 62.3915 8.67999H65.2515V10.5H62.7315C61.9981 10.5 61.4915 10.62 61.2115 10.86C60.9448 11.1 60.8115 11.4 60.8115 11.76C60.8115 12.16 60.9648 12.48 61.2715 12.72C61.5915 12.9467 62.0248 13.06 62.5715 13.06C63.0915 13.06 63.5582 12.94 63.9715 12.7C64.3848 12.4467 64.6848 12.08 64.8715 11.6L65.3515 13.04C65.1248 13.7333 64.7115 14.26 64.1115 14.62C63.5115 14.98 62.7381 15.16 61.7915 15.16Z" fill="#C0B4A3"/>
<path d="M51.8398 15V4.23999H54.8198V7.27999L54.3998 6.39999C54.7198 5.63999 55.2332 5.06665 55.9398 4.67999C56.6465 4.27999 57.5065 4.07999 58.5198 4.07999V6.95999C58.3865 6.94665 58.2665 6.93999 58.1598 6.93999C58.0532 6.92665 57.9398 6.91999 57.8198 6.91999C56.9665 6.91999 56.2732 7.16665 55.7398 7.65999C55.2198 8.13999 54.9598 8.89332 54.9598 9.91999V15H51.8398Z" fill="#C0B4A3"/>
<path d="M48.9854 15.16C48.4521 15.16 47.9921 14.98 47.6054 14.62C47.2321 14.2467 47.0454 13.7733 47.0454 13.2C47.0454 12.6267 47.2321 12.1667 47.6054 11.82C47.9921 11.46 48.4521 11.28 48.9854 11.28C49.5321 11.28 49.9921 11.46 50.3654 11.82C50.7387 12.1667 50.9254 12.6267 50.9254 13.2C50.9254 13.7733 50.7387 14.2467 50.3654 14.62C49.9921 14.98 49.5321 15.16 48.9854 15.16Z" fill="#C0B4A3"/>
<path d="M41.1368 15.16C39.9901 15.16 38.9701 14.92 38.0768 14.44C37.1968 13.96 36.4968 13.3067 35.9768 12.48C35.4701 11.64 35.2168 10.6867 35.2168 9.61999C35.2168 8.53999 35.4701 7.58665 35.9768 6.75999C36.4968 5.91999 37.1968 5.26665 38.0768 4.79999C38.9701 4.31999 39.9901 4.07999 41.1368 4.07999C42.2701 4.07999 43.2835 4.31999 44.1768 4.79999C45.0701 5.26665 45.7701 5.91332 46.2768 6.73999C46.7835 7.56665 47.0368 8.52665 47.0368 9.61999C47.0368 10.6867 46.7835 11.64 46.2768 12.48C45.7701 13.3067 45.0701 13.96 44.1768 14.44C43.2835 14.92 42.2701 15.16 41.1368 15.16ZM41.1368 12.6C41.6568 12.6 42.1235 12.48 42.5368 12.24C42.9501 12 43.2768 11.66 43.5168 11.22C43.7568 10.7667 43.8768 10.2333 43.8768 9.61999C43.8768 8.99332 43.7568 8.45999 43.5168 8.01999C43.2768 7.57999 42.9501 7.23999 42.5368 6.99999C42.1235 6.75999 41.6568 6.63999 41.1368 6.63999C40.6168 6.63999 40.1501 6.75999 39.7368 6.99999C39.3235 7.23999 38.9901 7.57999 38.7368 8.01999C38.4968 8.45999 38.3768 8.99332 38.3768 9.61999C38.3768 10.2333 38.4968 10.7667 38.7368 11.22C38.9901 11.66 39.3235 12 39.7368 12.24C40.1501 12.48 40.6168 12.6 41.1368 12.6Z" fill="#C0B4A3"/>
<path d="M28.7598 15V4.23999H31.7398V7.27999L31.3198 6.39999C31.6398 5.63999 32.1531 5.06665 32.8598 4.67999C33.5664 4.27999 34.4264 4.07999 35.4398 4.07999V6.95999C35.3064 6.94665 35.1864 6.93999 35.0798 6.93999C34.9731 6.92665 34.8598 6.91999 34.7398 6.91999C33.8864 6.91999 33.1931 7.16665 32.6598 7.65999C32.1398 8.13999 31.8798 8.89332 31.8798 9.91999V15H28.7598Z" fill="#C0B4A3"/>
<path d="M25.6683 15.16C24.4016 15.16 23.4149 14.84 22.7083 14.2C22.0016 13.5467 21.6483 12.58 21.6483 11.3V1.85999H24.7683V11.26C24.7683 11.7133 24.8883 12.0667 25.1283 12.32C25.3683 12.56 25.6949 12.68 26.1083 12.68C26.6016 12.68 27.0216 12.5467 27.3683 12.28L28.2083 14.48C27.8883 14.7067 27.5016 14.88 27.0483 15C26.6083 15.1067 26.1483 15.16 25.6683 15.16ZM19.9883 6.87998V4.47999H27.4483V6.87998H19.9883Z" fill="#C0B4A3"/>
<path d="M15.4637 15.16C14.5437 15.16 13.657 15.0533 12.8037 14.84C11.9637 14.6133 11.297 14.3333 10.8037 14L11.8437 11.76C12.337 12.0667 12.917 12.32 13.5837 12.52C14.2637 12.7067 14.9304 12.8 15.5837 12.8C16.3037 12.8 16.8104 12.7133 17.1037 12.54C17.4104 12.3667 17.5637 12.1267 17.5637 11.82C17.5637 11.5667 17.4437 11.38 17.2037 11.26C16.977 11.1267 16.6704 11.0267 16.2837 10.96C15.897 10.8933 15.4704 10.8267 15.0037 10.76C14.5504 10.6933 14.0904 10.6067 13.6237 10.5C13.157 10.38 12.7304 10.2067 12.3437 9.97999C11.957 9.75332 11.6437 9.44665 11.4037 9.05999C11.177 8.67332 11.0637 8.17332 11.0637 7.55999C11.0637 6.87999 11.257 6.27999 11.6437 5.75999C12.0437 5.23999 12.617 4.83332 13.3637 4.53999C14.1104 4.23332 15.0037 4.07999 16.0437 4.07999C16.777 4.07999 17.5237 4.15999 18.2837 4.31999C19.0437 4.47999 19.677 4.71332 20.1837 5.01999L19.1437 7.23999C18.6237 6.93332 18.097 6.72665 17.5637 6.61999C17.0437 6.49999 16.537 6.43999 16.0437 6.43999C15.3504 6.43999 14.8437 6.53332 14.5237 6.71999C14.2037 6.90665 14.0437 7.14665 14.0437 7.43999C14.0437 7.70665 14.157 7.90665 14.3837 8.03999C14.6237 8.17332 14.937 8.27999 15.3237 8.35999C15.7104 8.43999 16.1304 8.51332 16.5837 8.57999C17.0504 8.63332 17.517 8.71999 17.9837 8.83999C18.4504 8.95999 18.8704 9.13332 19.2437 9.35999C19.6304 9.57332 19.9437 9.87332 20.1837 10.26C20.4237 10.6333 20.5437 11.1267 20.5437 11.74C20.5437 12.4067 20.3437 13 19.9437 13.52C19.5437 14.0267 18.9637 14.4267 18.2037 14.72C17.457 15.0133 16.5437 15.16 15.4637 15.16Z" fill="#C0B4A3"/>
<path d="M7.3 15V12.9L7.1 12.44V8.67999C7.1 8.01332 6.89333 7.49332 6.48 7.11999C6.08 6.74665 5.46 6.55999 4.62 6.55999C4.04667 6.55999 3.48 6.65332 2.92 6.83999C2.37333 7.01332 1.90667 7.25332 1.52 7.55999L0.4 5.37999C0.986667 4.96665 1.69333 4.64665 2.52 4.41999C3.34667 4.19332 4.18667 4.07999 5.04 4.07999C6.68 4.07999 7.95333 4.46665 8.86 5.23999C9.76667 6.01332 10.22 7.21999 10.22 8.85999V15H7.3ZM4.02 15.16C3.18 15.16 2.46 15.02 1.86 14.74C1.26 14.4467 0.8 14.0533 0.48 13.56C0.16 13.0667 0 12.5133 0 11.9C0 11.26 0.153333 10.7 0.46 10.22C0.78 9.73999 1.28 9.36665 1.96 9.09999C2.64 8.81999 3.52667 8.67999 4.62 8.67999H7.48V10.5H4.96C4.22667 10.5 3.72 10.62 3.44 10.86C3.17333 11.1 3.04 11.4 3.04 11.76C3.04 12.16 3.19333 12.48 3.5 12.72C3.82 12.9467 4.25333 13.06 4.8 13.06C5.32 13.06 5.78667 12.94 6.2 12.7C6.61333 12.4467 6.91333 12.08 7.1 11.6L7.58 13.04C7.35333 13.7333 6.94 14.26 6.34 14.62C5.74 14.98 4.96667 15.16 4.02 15.16Z" fill="#C0B4A3"/>
</svg>
